<svg width="95" height="68" viewBox="0 0 95 68" fill="none" xmlns="http://www.w3.org/2000/svg">
<path d="M51.7151 3.71777C51.8151 3.71778 51.9123 3.73071 52.0059 3.75312C52.0258 3.75431 52.0457 3.75595 52.0657 3.7572C52.1707 3.7638 52.276 3.77129 52.3815 3.77963C52.426 3.78315 52.4705 3.78669 52.5151 3.79051C52.6237 3.79983 52.7326 3.81063 52.8418 3.82178C52.8953 3.82723 52.9488 3.8322 53.0023 3.83809C53.1051 3.8494 53.208 3.86189 53.3111 3.8748C53.3642 3.88144 53.4172 3.88813 53.4704 3.89519C53.5766 3.90932 53.6829 3.92492 53.7894 3.94074C53.8422 3.94858 53.8951 3.95628 53.948 3.96453C54.0512 3.98063 54.1546 3.99715 54.2581 4.01484C54.3141 4.0244 54.3702 4.03403 54.4263 4.04407C54.5453 4.06536 54.6645 4.08799 54.7839 4.11136C54.8115 4.11677 54.8391 4.12217 54.8667 4.12768C54.9873 4.15175 55.108 4.17694 55.2288 4.20313C55.2881 4.21598 55.3473 4.22921 55.4066 4.24256C55.4983 4.2632 55.5902 4.28392 55.6821 4.30578C55.7559 4.32335 55.8296 4.34181 55.9035 4.36016C56.0023 4.3847 56.1013 4.40968 56.2001 4.43562C56.2451 4.44741 56.29 4.45957 56.335 4.47164C56.4511 4.50285 56.5673 4.53504 56.6836 4.56817C56.7313 4.58178 56.779 4.59571 56.8267 4.60964C56.9478 4.64497 57.069 4.68099 57.1901 4.7184C57.2186 4.7272 57.247 4.73601 57.2755 4.74491C57.4058 4.78571 57.5362 4.82747 57.6665 4.87067C57.7057 4.88367 57.7448 4.89689 57.784 4.9101C57.9069 4.95156 58.0297 4.9943 58.1525 5.0379C58.1842 5.04915 58.2158 5.0605 58.2475 5.07189C58.377 5.11847 58.5066 5.16568 58.6359 5.21464C58.6653 5.22576 58.6945 5.23739 58.7239 5.24863C59.0145 5.35995 59.3047 5.47677 59.5938 5.60007C59.6287 5.61499 59.6635 5.63053 59.6984 5.64562C59.8244 5.70005 59.9503 5.75546 60.0759 5.81216C60.1108 5.82792 60.1457 5.84381 60.1806 5.85975C60.2973 5.9131 60.4141 5.96689 60.5305 6.02221C60.5949 6.05284 60.6588 6.08479 60.7231 6.11602C60.817 6.16168 60.9112 6.20707 61.0049 6.25402C61.0762 6.28976 61.1469 6.32697 61.218 6.36346C61.3041 6.40762 61.3904 6.45145 61.4761 6.4967C61.5289 6.52457 61.5814 6.55339 61.6341 6.58167C62.0523 6.80613 62.4671 7.04238 62.8763 7.29271C62.9119 7.31446 62.9468 7.33739 62.9823 7.35933C63.6663 7.78243 64.3359 8.24147 64.986 8.73656C65.0295 8.76974 65.0735 8.8023 65.1169 8.83581C65.1679 8.87521 65.2183 8.9156 65.2691 8.95545C65.3652 9.03087 65.4615 9.10616 65.5567 9.18317C65.6205 9.23481 65.6833 9.28785 65.7467 9.3402C65.8199 9.40061 65.8931 9.46102 65.9656 9.52238C66.0443 9.58888 66.122 9.65666 66.2 9.72427C66.2635 9.77936 66.3276 9.83364 66.3907 9.88946C66.4672 9.95729 66.5427 10.0265 66.6186 10.0954C66.6799 10.1512 66.7413 10.2069 66.8022 10.2633C66.8652 10.3218 66.9272 10.3815 66.9896 10.4408C67.0654 10.5125 67.1414 10.584 67.2163 10.6569C67.2825 10.7213 67.3478 10.7867 67.4134 10.852C67.4747 10.9131 67.5363 10.9738 67.597 11.0356C67.6745 11.1145 67.7509 11.1947 67.8275 11.2748C67.8816 11.3315 67.9363 11.3875 67.9899 11.4448C68.056 11.5154 68.121 11.5873 68.1863 11.6589C68.2512 11.73 68.3161 11.8011 68.3802 11.873C68.4423 11.9427 68.5037 12.0132 68.5651 12.0838C68.6235 12.1509 68.6821 12.2178 68.7397 12.2857C68.8031 12.3602 68.8653 12.4359 68.9278 12.5114C68.9925 12.5894 69.0573 12.6675 69.1211 12.7466C69.1668 12.8033 69.2119 12.8606 69.2572 12.9179C69.3334 13.0142 69.409 13.111 69.4838 13.2088C69.5223 13.2591 69.5606 13.3097 69.5987 13.3604C69.6728 13.4589 69.7463 13.5581 69.8189 13.6581C69.8693 13.7274 69.9188 13.7975 69.9685 13.8675C70.025 13.9471 70.0812 14.027 70.1367 14.1075C70.191 14.1861 70.2445 14.2653 70.2979 14.3447C70.3521 14.4255 70.4063 14.5064 70.4597 14.5881C70.5137 14.6708 70.5671 14.7539 70.6202 14.8375C70.6701 14.9163 70.72 14.9952 70.7691 15.0748C70.8219 15.1604 70.874 15.2466 70.9258 15.3331C70.9744 15.4143 71.0225 15.4958 71.0702 15.5778C71.1188 15.6613 71.1671 15.745 71.2147 15.8293C71.2635 15.9159 71.3119 16.0029 71.3598 16.0904C71.4078 16.1783 71.4553 16.2667 71.5023 16.3555C71.5476 16.4411 71.5921 16.5273 71.6365 16.6138C71.68 16.6986 71.723 16.7838 71.7655 16.8694C71.8122 16.9634 71.858 17.0579 71.9035 17.1529C71.9437 17.2366 71.9837 17.3205 72.0229 17.4051C72.069 17.5044 72.1143 17.6044 72.159 17.7048C72.1952 17.786 72.2316 17.8671 72.2669 17.9489C72.3089 18.0462 72.3494 18.1443 72.3902 18.2425C72.4281 18.3338 72.4664 18.4251 72.5032 18.5172C72.5425 18.6156 72.5806 18.7148 72.6187 18.8142C72.6525 18.9025 72.6861 18.991 72.7189 19.08C72.7547 19.1772 72.7896 19.2749 72.8242 19.373C72.8587 19.4708 72.893 19.5687 72.9262 19.6674C72.9562 19.7562 72.9852 19.8456 73.0142 19.9352C73.0498 20.0451 73.0854 20.1552 73.1195 20.2662C73.1462 20.3535 73.1714 20.4414 73.1972 20.5293C73.2286 20.6365 73.2602 20.744 73.2903 20.8522C73.3184 20.9536 73.3449 21.0558 73.3718 21.1581C73.3977 21.2566 73.4241 21.3552 73.4488 21.4545C73.4776 21.5701 73.5039 21.6866 73.531 21.8032C73.5512 21.89 73.5721 21.9768 73.5914 22.0642C73.6197 22.1929 73.646 22.3224 73.6722 22.4524C73.6884 22.5323 73.7057 22.612 73.721 22.6924C73.7429 22.8066 73.7624 22.9217 73.7827 23.037C73.8013 23.1425 73.8206 23.2481 73.8379 23.3545C73.8536 23.4513 73.8676 23.5486 73.8822 23.6461C73.8993 23.7604 73.9174 23.8748 73.9329 23.99C73.9511 24.1251 73.9663 24.261 73.9823 24.3972C73.9919 24.4782 74.0025 24.5592 74.0112 24.6406C74.0292 24.8078 74.0446 24.9759 74.0594 25.145C74.064 25.1986 74.0698 25.2523 74.0741 25.3061C74.0869 25.4645 74.097 25.6239 74.1069 25.784C74.1112 25.8541 74.1166 25.9243 74.1204 25.9947C74.1207 26.0015 74.1219 26.0083 74.1223 26.0151C74.1459 26.4652 74.1576 26.9218 74.1576 27.3849C74.1576 27.8479 74.1459 28.3045 74.1223 28.7546C74.1219 28.7612 74.1207 28.7677 74.1204 28.7743C74.1166 28.8447 74.1112 28.9149 74.1069 28.985C74.097 29.1451 74.0869 29.3045 74.0741 29.4629C74.0698 29.5168 74.064 29.5704 74.0594 29.624C74.0447 29.7931 74.0292 29.9613 74.0112 30.1284C74.0025 30.2098 73.9919 30.2908 73.9823 30.3718C73.9663 30.5081 73.9511 30.644 73.9329 30.779C73.9174 30.8942 73.8993 31.0086 73.8822 31.1229C73.8676 31.2204 73.8536 31.3178 73.8379 31.4146C73.8206 31.5209 73.8013 31.6265 73.7827 31.732C73.7624 31.8473 73.7429 31.9624 73.721 32.0767C73.7057 32.157 73.6884 32.2368 73.6722 32.3166C73.646 32.4466 73.6197 32.5761 73.5914 32.7048C73.5721 32.7922 73.5512 32.879 73.531 32.9658C73.5039 33.0825 73.4775 33.199 73.4488 33.3145C73.4241 33.4139 73.3977 33.5124 73.3718 33.6109C73.3449 33.7132 73.3184 33.8154 73.2903 33.9168C73.2602 34.025 73.2286 34.1325 73.1972 34.2397C73.1714 34.3276 73.1462 34.4155 73.1195 34.5028C73.0854 34.6138 73.0498 34.7239 73.0142 34.8338C72.9852 34.9234 72.9562 35.0128 72.9262 35.1017C72.893 35.2003 72.8587 35.2983 72.8242 35.396C72.7896 35.4941 72.7547 35.5918 72.7189 35.689C72.6861 35.778 72.6525 35.8665 72.6187 35.9548C72.5806 36.0542 72.5425 36.1534 72.5032 36.2518C72.4641 36.3496 72.424 36.4467 72.3837 36.5435C72.3489 36.6271 72.3142 36.7107 72.2785 36.7936C72.2345 36.8957 72.1896 36.9971 72.1443 37.0982C72.1055 37.1847 72.0659 37.2707 72.0261 37.3565C71.9858 37.4435 71.9448 37.53 71.9035 37.6162C71.8587 37.7097 71.8134 37.8029 71.7674 37.8955C71.7212 37.9887 71.6742 38.0813 71.6268 38.1736C71.5891 38.2471 71.551 38.3203 71.5126 38.3931C71.4584 38.4957 71.4038 38.5977 71.3482 38.699C71.308 38.7723 71.2677 38.8453 71.2269 38.9179C71.171 39.0171 71.1145 39.1156 71.0574 39.2136C71.0187 39.2799 70.9797 39.3458 70.9405 39.4114C70.8795 39.5136 70.818 39.6152 70.7556 39.716C70.7153 39.7811 70.6745 39.8458 70.6336 39.9104C70.5754 40.0025 70.5166 40.094 70.4571 40.185C70.4016 40.2699 70.3454 40.354 70.2889 40.4379C70.2436 40.5051 70.1987 40.5725 70.1528 40.6391C70.088 40.7332 70.0223 40.8264 69.9563 40.9192C69.9083 40.9867 69.8605 41.0542 69.8119 41.1211C69.7504 41.2057 69.6876 41.2891 69.6251 41.3726C69.5728 41.4424 69.5207 41.5122 69.4678 41.5813C69.4044 41.6639 69.3402 41.7458 69.2758 41.8274C69.2234 41.8938 69.1709 41.9601 69.1179 42.0259C69.0506 42.1092 68.9826 42.1917 68.9144 42.274C68.8607 42.3387 68.8075 42.4037 68.7532 42.4677C68.6949 42.5365 68.6357 42.6044 68.5767 42.6723C68.503 42.7571 68.4292 42.8417 68.3545 42.9252C68.3073 42.9781 68.259 43.0299 68.2114 43.0822C68.1428 43.1575 68.0747 43.233 68.0053 43.3072C67.9192 43.3993 67.832 43.49 67.7446 43.5805C67.7057 43.6209 67.667 43.6615 67.6278 43.7015C67.538 43.7933 67.4473 43.884 67.3562 43.9741C67.3104 44.0194 67.265 44.0652 67.2188 44.1101C67.1312 44.1954 67.0424 44.2792 66.9537 44.3629C66.9089 44.4052 66.8646 44.4481 66.8195 44.4901C66.734 44.5695 66.6472 44.6472 66.5608 44.7253C66.5044 44.7762 66.4487 44.8279 66.3919 44.8782C66.3359 44.9278 66.2788 44.976 66.2225 45.025C66.1357 45.1005 66.0495 45.1766 65.9618 45.2507C65.9242 45.2825 65.8859 45.313 65.8482 45.3445C65.7447 45.4309 65.6414 45.5171 65.5368 45.6015C65.4911 45.6384 65.4447 45.6744 65.3988 45.7109C65.305 45.7855 65.2115 45.8602 65.1169 45.9332C65.0542 45.9817 64.9906 46.0289 64.9275 46.0766C64.8416 46.1417 64.7561 46.2073 64.6694 46.2711C64.3789 46.4851 64.0848 46.6924 63.7873 46.8924C63.5371 47.0606 63.2837 47.2223 63.0291 47.3805C62.9779 47.4123 62.9271 47.4449 62.8757 47.4763C62.8235 47.5083 62.7708 47.5393 62.7184 47.5708C62.6221 47.6288 62.5263 47.6876 62.4295 47.7441C62.2765 47.8335 62.1228 47.9208 61.9685 48.0065C61.9552 48.014 61.9415 48.0209 61.9281 48.0283C61.881 48.0544 61.8334 48.0794 61.7862 48.1051C61.6823 48.1618 61.5786 48.2186 61.4742 48.2737C61.4085 48.3083 61.3423 48.3416 61.2765 48.3757C61.1758 48.4276 61.0752 48.4795 60.9741 48.53C60.947 48.5435 60.9197 48.5566 60.8925 48.5701C60.7569 48.6372 60.6211 48.7034 60.4849 48.7679C60.4586 48.7803 60.4322 48.7923 60.4059 48.8046C60.2856 48.861 60.1652 48.9168 60.0445 48.9711C59.9518 49.0128 59.8587 49.0531 59.7658 49.0935C59.7029 49.1209 59.6402 49.1489 59.5771 49.1757C59.482 49.2162 59.3867 49.2555 59.2914 49.2947C59.2233 49.3227 59.1554 49.351 59.0872 49.3783C58.9849 49.4194 58.8822 49.4591 58.7797 49.4986C58.726 49.5194 58.6723 49.5402 58.6186 49.5605C58.5266 49.5952 58.4345 49.6289 58.3425 49.6625C58.2588 49.693 58.1753 49.7234 58.0915 49.7529C58.0284 49.7751 57.9652 49.7965 57.9021 49.8181C57.8056 49.8512 57.7092 49.8842 57.6126 49.916C57.5356 49.9413 57.4584 49.9656 57.3814 49.9901C57.2956 50.0174 57.2098 50.0441 57.124 50.0703C57.0566 50.091 56.9892 50.1115 56.9218 50.1315C56.8244 50.1604 56.727 50.1883 56.6297 50.2158C56.5541 50.2371 56.4785 50.2578 56.403 50.2783C56.3289 50.2985 56.255 50.3188 56.1809 50.3382C56.0841 50.3635 55.9874 50.3876 55.8907 50.4116C55.8215 50.4287 55.7525 50.4461 55.6833 50.4626C55.5962 50.4833 55.509 50.5027 55.422 50.5224C55.3509 50.5384 55.2799 50.5546 55.2089 50.57C55.1159 50.59 55.0231 50.6096 54.9303 50.6284C54.856 50.6435 54.7817 50.6577 54.7075 50.6719C54.6319 50.6865 54.5564 50.7011 54.4809 50.7148C54.3847 50.7322 54.2886 50.749 54.1926 50.7651C54.1284 50.7758 54.0641 50.7862 54 50.7963C53.9197 50.8091 53.8394 50.8213 53.7593 50.833C53.6694 50.8462 53.5798 50.8591 53.4903 50.8711C53.4097 50.8819 53.3292 50.8919 53.2489 50.9017C53.1848 50.9095 53.1208 50.9169 53.0569 50.9241C52.9604 50.935 52.8641 50.9453 52.768 50.9547C52.7001 50.9614 52.6322 50.9678 52.5645 50.9738C52.4729 50.9818 52.3815 50.9887 52.2904 50.9955C52.2305 51 52.1709 51.0045 52.1112 51.0084C52.0763 51.0107 52.0415 51.0145 52.0066 51.0166C51.9128 51.0391 51.8154 51.0519 51.7151 51.0519H33.3982C32.672 51.0519 32.0833 50.4286 32.0833 49.6597V37.8262H16.9629V33.6497H36.1453V45.4832C36.1453 46.2521 36.7339 46.8754 37.4601 46.8754H51.2657C51.2745 46.8754 51.2833 46.8735 51.292 46.8733C59.2842 46.8077 69.8132 39.9924 69.8132 27.3849C69.8132 14.7773 59.2842 7.9613 51.292 7.89568C51.2833 7.89549 51.2745 7.89433 51.2657 7.89432H37.4601C36.7339 7.89432 36.1453 8.51762 36.1453 9.2865V21.3111H16.9629V16.9435H32.0833V5.10995C32.0833 4.34108 32.672 3.71778 33.3982 3.71777H51.7151Z" fill="url(#paint0_radial_1_38861)"/>
<path fill-rule="evenodd" clip-rule="evenodd" d="M51.3655 12.0713C51.4782 12.0713 51.5873 12.0879 51.6917 12.1162C51.7279 12.1156 51.7645 12.1141 51.8008 12.1141C57.7331 12.1143 65.6109 17.4671 65.6109 27.407C65.6108 37.3468 57.7331 42.6991 51.8008 42.6993C51.6961 42.6993 51.5915 42.6967 51.4875 42.6925C51.4473 42.6964 51.4066 42.6993 51.3655 42.6993H41.5044C40.7783 42.6992 40.1895 42.0759 40.1895 41.3071V29.4736H7.75879V25.297H40.1895V13.4635C40.1895 12.6946 40.7783 12.0714 41.5044 12.0713H51.3655ZM45.2312 16.2478C44.505 16.2478 43.9164 16.8711 43.9164 17.64V37.1305C43.9164 37.8994 44.505 38.5227 45.2312 38.5227H51.4451C51.4677 38.5227 51.4902 38.5198 51.5125 38.5187C51.5805 38.5212 51.6489 38.5227 51.7173 38.5227C55.9911 38.5226 61.6664 34.6245 61.6664 27.3853C61.6664 20.146 55.9911 16.2479 51.7173 16.2478C51.6489 16.2478 51.5805 16.2487 51.5125 16.2512C51.4903 16.25 51.4677 16.2478 51.4451 16.2478H45.2312Z" fill="url(#paint1_radial_1_38861)"/>
<path d="M15.0869 15.4902C16.8468 15.4902 18.2734 16.9169 18.2734 18.6768C18.2734 20.4366 16.8468 21.8633 15.0869 21.8633C13.327 21.8633 11.9004 20.4366 11.9004 18.6768C11.9004 16.9169 13.327 15.4902 15.0869 15.4902ZM15.0869 17.084C14.207 17.084 13.4932 17.7969 13.4932 18.6768C13.4932 19.5567 14.207 20.2705 15.0869 20.2705C15.9668 20.2705 16.6797 19.5567 16.6797 18.6768C16.6796 17.7969 15.9668 17.084 15.0869 17.084Z" fill="#3A31D8"/>
<path d="M15.0869 32.1963C16.8468 32.1963 18.2734 33.6229 18.2734 35.3828C18.2734 37.1427 16.8468 38.5693 15.0869 38.5693C13.327 38.5693 11.9004 37.1427 11.9004 35.3828C11.9004 33.6229 13.327 32.1963 15.0869 32.1963ZM15.0869 33.79C14.207 33.79 13.4932 34.5029 13.4932 35.3828C13.4932 36.2627 14.207 36.9766 15.0869 36.9766C15.9668 36.9765 16.6797 36.2627 16.6797 35.3828C16.6797 34.5029 15.9668 33.7901 15.0869 33.79Z" fill="#3A31D8"/>
<path d="M5.11621 23.208C7.11281 23.2083 8.73126 24.922 8.73145 27.0361C8.73145 29.1504 7.11293 30.865 5.11621 30.8652C3.11928 30.8652 1.5 29.1506 1.5 27.0361C1.50019 24.9219 3.1194 23.208 5.11621 23.208ZM5.19531 25.2666C4.26031 25.2666 3.50195 26.025 3.50195 26.96C3.50203 27.8949 4.26035 28.6523 5.19531 28.6523C6.13016 28.6522 6.88762 27.8948 6.8877 26.96C6.8877 26.025 6.1302 25.2667 5.19531 25.2666Z" fill="#3122E2"/>
<path d="M78.5021 42.1943V50.6931H77.0146V42.1943H78.5021ZM84.1487 42.1943L80.7248 46.1584L84.5079 50.6931H82.448L79.344 46.723V45.7008L82.3301 42.1943H84.1487Z" fill="url(#paint2_linear_1_38861)"/>
<path d="M86.5622 42.1943V50.6931H85.0748V42.1943H86.5622Z" fill="url(#paint3_linear_1_38861)"/>
<path d="M93.4998 42.1943V43.5613H91.1985V50.6931H89.7111V43.5613H87.4098V42.1943H93.4998Z" fill="url(#paint4_linear_1_38861)"/>
<rect x="67.5967" y="45.6211" width="7.66353" height="2.36671" rx="1" fill="#7848F9"/>
<path d="M12.5635 62.5477V56.8818H15.0706C16.0884 56.8818 16.5973 57.3216 16.5973 58.2012C16.5973 58.8457 16.2655 59.3067 15.6019 59.584C16.3104 59.724 16.6647 60.1532 16.6647 60.8717C16.6647 61.989 16.1071 62.5477 14.992 62.5477H12.5635ZM14.9508 61.6364C15.3899 61.6364 15.6094 61.3987 15.6094 60.9232C15.6094 60.3342 15.2814 60.0396 14.6253 60.0396H14.3259V59.3621C15.1492 59.2168 15.5608 58.8523 15.5608 58.2686C15.5608 57.9516 15.3762 57.7931 15.007 57.7931H13.5551V61.6364H14.9508Z" fill="url(#paint5_linear_1_38861)"/>
<path d="M16.949 58.3874H18.0005L18.9922 61.3828L19.9613 58.3874H20.9941L19.3626 62.6705C19.0732 63.4259 18.6105 63.9635 17.9743 64.2831L17.4954 63.5659C17.9344 63.3625 18.2537 63.031 18.4533 62.5714L16.949 58.3874Z" fill="url(#paint6_linear_1_38861)"/>
<path d="M25.4508 61.9534C26.7605 61.9534 27.4153 61.1556 27.4153 59.5602C27.4153 58.1708 26.7605 57.4762 25.4508 57.4762H24.1972V61.9534H25.4508ZM23.505 62.5477V56.8818H25.4508C27.222 56.8818 28.1076 57.7746 28.1076 59.5602C28.1076 61.5519 27.222 62.5477 25.4508 62.5477H23.505Z" fill="url(#paint7_linear_1_38861)"/>
<path d="M28.856 61.2917C28.856 60.4385 29.3873 60.0119 30.45 60.0119C30.7918 60.0119 31.1336 60.0383 31.4753 60.0912V59.6989C31.4753 59.2208 31.1223 58.9818 30.4164 58.9818C30.0122 58.9818 29.5981 59.0478 29.174 59.1799V58.5855C29.5981 58.4535 30.0122 58.3874 30.4164 58.3874C31.5838 58.3874 32.1676 58.818 32.1676 59.6791V62.5477H31.7784L31.5389 62.1356C31.1473 62.4103 30.7207 62.5477 30.2592 62.5477C29.3237 62.5477 28.856 62.129 28.856 61.2917ZM30.45 60.6062C29.8488 60.6062 29.5482 60.8308 29.5482 61.2798C29.5482 61.7288 29.7852 61.9534 30.2592 61.9534C30.7382 61.9534 31.1435 61.8186 31.4753 61.5492V60.6855C31.1336 60.6326 30.7918 60.6062 30.45 60.6062Z" fill="url(#paint8_linear_1_38861)"/>
<path d="M33.2939 62.5477V58.3874H33.7617L33.8851 58.9184C34.2868 58.5644 34.7283 58.3874 35.2098 58.3874C36.1902 58.3874 36.6804 58.9038 36.6804 59.9366V62.5477H35.9881V59.9247C35.9881 59.3067 35.6975 58.9976 35.1163 58.9976C34.7196 58.9976 34.3429 59.1733 33.9862 59.5246V62.5477H33.2939Z" fill="url(#paint9_linear_1_38861)"/>
<path d="M38.5738 58.3874V62.5477H37.8816V58.3874H38.5738ZM38.5738 56.8818V57.5752H37.8816V56.8818H38.5738Z" fill="url(#paint10_linear_1_38861)"/>
<path d="M41.3953 58.3874C42.5129 58.3874 43.0716 58.9725 43.0716 60.1427C43.0716 60.3091 43.0604 60.4874 43.038 60.6775H40.2802C40.2802 61.5281 40.7491 61.9534 41.6871 61.9534C42.1337 61.9534 42.5303 61.9005 42.8771 61.7949V62.3892C42.5303 62.4948 42.1087 62.5477 41.6123 62.5477C40.2627 62.5477 39.5879 61.8385 39.5879 60.42C39.5879 59.065 40.1903 58.3874 41.3953 58.3874ZM40.2802 60.0674H42.4056C42.3906 59.3384 42.0538 58.9738 41.3953 58.9738C40.6968 58.9738 40.3251 59.3384 40.2802 60.0674Z" fill="url(#paint11_linear_1_38861)"/>
<path d="M44.7331 56.8818V62.5477H44.0408V56.8818H44.7331Z" fill="url(#paint12_linear_1_38861)"/>
<path d="M45.7097 61.2917C45.7097 60.4385 46.2411 60.0119 47.3038 60.0119C47.6456 60.0119 47.9873 60.0383 48.3291 60.0912V59.6989C48.3291 59.2208 47.9761 58.9818 47.2701 58.9818C46.866 58.9818 46.4519 59.0478 46.0278 59.1799V58.5855C46.4519 58.4535 46.866 58.3874 47.2701 58.3874C48.4376 58.3874 49.0214 58.818 49.0214 59.6791V62.5477H48.6322L48.3927 62.1356C48.0011 62.4103 47.5745 62.5477 47.113 62.5477C46.1775 62.5477 45.7097 62.129 45.7097 61.2917ZM47.3038 60.6062C46.7026 60.6062 46.402 60.8308 46.402 61.2798C46.402 61.7288 46.639 61.9534 47.113 61.9534C47.5919 61.9534 47.9973 61.8186 48.3291 61.5492V60.6855C47.9873 60.6326 47.6456 60.6062 47.3038 60.6062Z" fill="url(#paint13_linear_1_38861)"/>
<path d="M55.7045 56.8818V57.4762H54.0206V62.5477H53.3284V57.4762H51.6445V56.8818H55.7045Z" fill="url(#paint14_linear_1_38861)"/>
<path d="M56.2695 61.2917C56.2695 60.4385 56.8009 60.0119 57.8636 60.0119C58.2054 60.0119 58.5471 60.0383 58.8889 60.0912V59.6989C58.8889 59.2208 58.5359 58.9818 57.8299 58.9818C57.4258 58.9818 57.0117 59.0478 56.5876 59.1799V58.5855C57.0117 58.4535 57.4258 58.3874 57.8299 58.3874C58.9974 58.3874 59.5812 58.818 59.5812 59.6791V62.5477H59.192L58.9525 62.1356C58.5609 62.4103 58.1343 62.5477 57.6728 62.5477C56.7373 62.5477 56.2695 62.129 56.2695 61.2917ZM57.8636 60.6062C57.2624 60.6062 56.9618 60.8308 56.9618 61.2798C56.9618 61.7288 57.1988 61.9534 57.6728 61.9534C58.1517 61.9534 58.5571 61.8186 58.8889 61.5492V60.6855C58.5471 60.6326 58.2054 60.6062 57.8636 60.6062Z" fill="url(#paint15_linear_1_38861)"/>
<path d="M60.7075 62.5477V58.3874H61.1752L61.2987 58.9184C61.643 58.5644 62.0571 58.3874 62.541 58.3874V58.9976C62.0721 58.9976 61.6916 59.1733 61.3998 59.5246V62.5477H60.7075Z" fill="url(#paint16_linear_1_38861)"/>
<path d="M63.05 61.2917C63.05 60.4385 63.5813 60.0119 64.644 60.0119C64.9858 60.0119 65.3276 60.0383 65.6693 60.0912V59.6989C65.6693 59.2208 65.3163 58.9818 64.6104 58.9818C64.2062 58.9818 63.7921 59.0478 63.368 59.1799V58.5855C63.7921 58.4535 64.2062 58.3874 64.6104 58.3874C65.7778 58.3874 66.3616 58.818 66.3616 59.6791V62.5477H65.9724L65.7329 62.1356C65.3413 62.4103 64.9147 62.5477 64.4532 62.5477C63.5177 62.5477 63.05 62.129 63.05 61.2917ZM64.644 60.6062C64.0428 60.6062 63.7422 60.8308 63.7422 61.2798C63.7422 61.7288 63.9792 61.9534 64.4532 61.9534C64.9322 61.9534 65.3375 61.8186 65.6693 61.5492V60.6855C65.3276 60.6326 64.9858 60.6062 64.644 60.6062Z" fill="url(#paint17_linear_1_38861)"/>
<path d="M68.1802 61.6998C68.4521 61.8424 68.7552 61.9137 69.0895 61.9137C69.9052 61.9137 70.3131 61.3947 70.3131 60.3566C70.3131 59.4506 69.9077 58.9976 69.097 58.9976C68.7477 58.9976 68.4421 59.0293 68.1802 59.0927V61.6998ZM67.4879 58.5578C68.0093 58.4442 68.5481 58.3874 69.1044 58.3874C70.3642 58.3874 70.9941 59.0465 70.9941 60.3645C70.9941 61.82 70.3605 62.5477 69.0932 62.5477C68.7789 62.5477 68.4745 62.4816 68.1802 62.3496V64.0533H67.4879V58.5578Z" fill="url(#paint18_linear_1_38861)"/>
<path d="M75.3198 58.3874V62.5477H74.8446L74.7249 62.0167C74.2484 62.3707 73.7694 62.5477 73.288 62.5477C72.3849 62.5477 71.9334 62.0313 71.9334 60.9985V58.3874H72.6256V61.0104C72.6256 61.6285 72.915 61.9375 73.4938 61.9375C73.8904 61.9375 74.2683 61.7618 74.6276 61.4105V58.3874H75.3198Z" fill="url(#paint19_linear_1_38861)"/>
<path d="M78.0664 58.3874C79.184 58.3874 79.7428 58.9725 79.7428 60.1427C79.7428 60.3091 79.7316 60.4874 79.7092 60.6775H76.9513C76.9513 61.5281 77.4203 61.9534 78.3583 61.9534C78.8048 61.9534 79.2015 61.9005 79.5482 61.7949V62.3892C79.2015 62.4948 78.7799 62.5477 78.2835 62.5477C76.9339 62.5477 76.2591 61.8385 76.2591 60.42C76.2591 59.065 76.8615 58.3874 78.0664 58.3874ZM76.9513 60.0674H79.0768C79.0618 59.3384 78.725 58.9738 78.0664 58.9738C77.3679 58.9738 76.9962 59.3384 76.9513 60.0674Z" fill="url(#paint20_linear_1_38861)"/>
<path d="M80.6372 62.3496V61.7156C81.0987 61.8741 81.5652 61.9534 82.0366 61.9534C82.6628 61.9534 82.9759 61.7552 82.9759 61.359C82.9759 60.9892 82.7576 60.8043 82.321 60.8043H81.7597C80.9116 60.8043 80.4875 60.3949 80.4875 59.5761C80.4875 58.7837 81.0326 58.3874 82.1227 58.3874C82.5917 58.3874 83.057 58.4535 83.5185 58.5855V59.2195C83.057 59.061 82.5917 58.9818 82.1227 58.9818C81.4691 58.9818 81.1423 59.1799 81.1423 59.5761C81.1423 59.9459 81.3481 60.1308 81.7597 60.1308H82.321C83.2191 60.1308 83.6681 60.5402 83.6681 61.359C83.6681 62.1515 83.1243 62.5477 82.0366 62.5477C81.5652 62.5477 81.0987 62.4816 80.6372 62.3496Z" fill="url(#paint21_linear_1_38861)"/>
<defs>
<radialGradient id="paint0_radial_1_38861" cx="0" cy="0" r="1" gradientUnits="userSpaceOnUse" gradientTransform="translate(47.1652 27.1031) rotate(90) scale(26.2028 29.5067)">
<stop stop-color="#8986D4"/>
<stop offset="1" stop-color="#3A31D8"/>
</radialGradient>
<radialGradient id="paint1_radial_1_38861" cx="0" cy="0" r="1" gradientUnits="userSpaceOnUse" gradientTransform="translate(52.7766 27.3853) rotate(180) scale(45.0686 70.3781)">
<stop stop-color="#7730EE" stop-opacity="0.8"/>
<stop offset="1" stop-color="#2E21E3"/>
</radialGradient>
<linearGradient id="paint2_linear_1_38861" x1="75.8983" y1="46.6359" x2="93.7799" y2="46.6359" gradientUnits="userSpaceOnUse">
<stop stop-color="#2B22CD"/>
<stop offset="1" stop-color="#441EBD"/>
</linearGradient>
<linearGradient id="paint3_linear_1_38861" x1="75.8983" y1="46.6359" x2="93.7799" y2="46.6359" gradientUnits="userSpaceOnUse">
<stop stop-color="#2B22CD"/>
<stop offset="1" stop-color="#441EBD"/>
</linearGradient>
<linearGradient id="paint4_linear_1_38861" x1="75.8983" y1="46.6359" x2="93.7799" y2="46.6359" gradientUnits="userSpaceOnUse">
<stop stop-color="#2B22CD"/>
<stop offset="1" stop-color="#441EBD"/>
</linearGradient>
<linearGradient id="paint5_linear_1_38861" x1="2.83938" y1="59.6023" x2="93.2051" y2="59.6023" gradientUnits="userSpaceOnUse">
<stop stop-color="#251BE2"/>
<stop offset="1" stop-color="#422E81"/>
</linearGradient>
<linearGradient id="paint6_linear_1_38861" x1="2.83938" y1="59.6023" x2="93.2051" y2="59.6023" gradientUnits="userSpaceOnUse">
<stop stop-color="#251BE2"/>
<stop offset="1" stop-color="#422E81"/>
</linearGradient>
<linearGradient id="paint7_linear_1_38861" x1="2.83938" y1="59.6023" x2="93.2051" y2="59.6023" gradientUnits="userSpaceOnUse">
<stop stop-color="#251BE2"/>
<stop offset="1" stop-color="#422E81"/>
</linearGradient>
<linearGradient id="paint8_linear_1_38861" x1="2.83938" y1="59.6023" x2="93.2051" y2="59.6023" gradientUnits="userSpaceOnUse">
<stop stop-color="#251BE2"/>
<stop offset="1" stop-color="#422E81"/>
</linearGradient>
<linearGradient id="paint9_linear_1_38861" x1="2.83938" y1="59.6023" x2="93.2051" y2="59.6023" gradientUnits="userSpaceOnUse">
<stop stop-color="#251BE2"/>
<stop offset="1" stop-color="#422E81"/>
</linearGradient>
<linearGradient id="paint10_linear_1_38861" x1="2.83938" y1="59.6023" x2="93.2051" y2="59.6023" gradientUnits="userSpaceOnUse">
<stop stop-color="#251BE2"/>
<stop offset="1" stop-color="#422E81"/>
</linearGradient>
<linearGradient id="paint11_linear_1_38861" x1="2.83938" y1="59.6023" x2="93.2051" y2="59.6023" gradientUnits="userSpaceOnUse">
<stop stop-color="#251BE2"/>
<stop offset="1" stop-color="#422E81"/>
</linearGradient>
<linearGradient id="paint12_linear_1_38861" x1="2.83938" y1="59.6023" x2="93.2051" y2="59.6023" gradientUnits="userSpaceOnUse">
<stop stop-color="#251BE2"/>
<stop offset="1" stop-color="#422E81"/>
</linearGradient>
<linearGradient id="paint13_linear_1_38861" x1="2.83938" y1="59.6023" x2="93.2051" y2="59.6023" gradientUnits="userSpaceOnUse">
<stop stop-color="#251BE2"/>
<stop offset="1" stop-color="#422E81"/>
</linearGradient>
<linearGradient id="paint14_linear_1_38861" x1="2.83938" y1="59.6023" x2="93.2051" y2="59.6023" gradientUnits="userSpaceOnUse">
<stop stop-color="#251BE2"/>
<stop offset="1" stop-color="#422E81"/>
</linearGradient>
<linearGradient id="paint15_linear_1_38861" x1="2.83938" y1="59.6023" x2="93.2051" y2="59.6023" gradientUnits="userSpaceOnUse">
<stop stop-color="#251BE2"/>
<stop offset="1" stop-color="#422E81"/>
</linearGradient>
<linearGradient id="paint16_linear_1_38861" x1="2.83938" y1="59.6023" x2="93.2051" y2="59.6023" gradientUnits="userSpaceOnUse">
<stop stop-color="#251BE2"/>
<stop offset="1" stop-color="#422E81"/>
</linearGradient>
<linearGradient id="paint17_linear_1_38861" x1="2.83938" y1="59.6023" x2="93.2051" y2="59.6023" gradientUnits="userSpaceOnUse">
<stop stop-color="#251BE2"/>
<stop offset="1" stop-color="#422E81"/>
</linearGradient>
<linearGradient id="paint18_linear_1_38861" x1="2.83938" y1="59.6023" x2="93.2051" y2="59.6023" gradientUnits="userSpaceOnUse">
<stop stop-color="#251BE2"/>
<stop offset="1" stop-color="#422E81"/>
</linearGradient>
<linearGradient id="paint19_linear_1_38861" x1="2.83938" y1="59.6023" x2="93.2051" y2="59.6023" gradientUnits="userSpaceOnUse">
<stop stop-color="#251BE2"/>
<stop offset="1" stop-color="#422E81"/>
</linearGradient>
<linearGradient id="paint20_linear_1_38861" x1="2.83938" y1="59.6023" x2="93.2051" y2="59.6023" gradientUnits="userSpaceOnUse">
<stop stop-color="#251BE2"/>
<stop offset="1" stop-color="#422E81"/>
</linearGradient>
<linearGradient id="paint21_linear_1_38861" x1="2.83938" y1="59.6023" x2="93.2051" y2="59.6023" gradientUnits="userSpaceOnUse">
<stop stop-color="#251BE2"/>
<stop offset="1" stop-color="#422E81"/>
</linearGradient>
</defs>
</svg>
